<svg width="900" height="450" viewBox="0 0 900 450" fill="none" xmlns="http://www.w3.org/2000/svg">
<g clip-path="url(#clip0_179_546)">
<path d="M289.96 236.977C290.877 272.004 275.113 307.751 245.721 327.567C243.023 329.394 240.116 330.908 237.219 332.432C234.375 333.873 230.812 335.888 230.614 339.229C230.384 341.098 231.093 343.269 231.582 345.148C233.979 352.457 229.322 356.152 223.695 360.276C219.997 363.137 216.308 365.998 212.61 368.848C210.286 370.623 207.233 372.94 204.379 371.604C200.992 369.777 199.919 363.805 198.502 360.068C196.471 354.211 195.616 346.662 187.823 347.153C166.235 348.74 144.313 345.723 124.132 337.725C109.035 332.15 95.5005 322.483 84.4356 310.894C71.0785 295.766 61.17 277.402 56.992 257.555C49.605 225.816 52.3452 191.207 66.2545 161.619C74.1625 145.176 86.0713 131.186 100.345 119.983C111.056 112.164 122.944 105.879 135.395 101.295C147.377 97.1505 159.838 94.7388 172.403 93.4233C179.144 92.8804 185.916 92.4419 192.689 92.5985C198.117 92.7238 206.421 92.2749 210.849 96.0647C214.777 99.416 216.683 104.594 219.392 108.906C223.081 114.826 227.769 123.951 217.923 126.122C216.225 126.425 214.402 126.321 212.662 126.154C205.889 125.391 199.086 124.608 192.178 124.702C145.209 124.671 101.21 149.592 90.614 197.826C87.5821 210.803 86.7694 224.292 89.0095 237.468C90.3535 249.108 94.0939 260.28 99.5847 270.657C109.774 288.656 127.403 302.51 147.345 307.95C156.399 310.696 165.735 311.813 175.226 311.698C182.03 311.865 182.311 307.835 180.623 302.343C178.31 293.897 176.456 285.388 174.653 276.9C169.496 248.012 162.922 216.451 175.403 188.534C182.072 172.895 195.825 160.231 212.412 156.148C229.884 151.534 249.711 155.23 263.569 167.173C272.915 174.607 278.885 185.298 283.386 196.176C288.678 208.934 289.762 223.112 289.991 236.789V236.977H289.96ZM205.181 226.255C205.108 236.914 206.921 247.417 208.765 257.91C210.328 269.122 212.797 280.064 215.527 291.068C216.808 297.019 218.069 302.938 225.175 297.697C233.781 291.694 240.71 283.499 245.909 274.353C250.795 265.479 253.671 255.748 254.588 245.705C255.984 236.841 255.588 227.748 253.931 218.894C251.702 208.611 247.471 196.928 238.251 190.935C229.509 185.548 217.538 186.634 211.828 195.978C206.046 204.654 205.4 215.794 205.17 226.046V226.255H205.181Z" fill="#0C2027"/>
<path d="M218.09 93.5273C219.83 92.9635 221.153 92.4311 222.528 92.1178C224.372 91.6898 225.852 92.5041 227.165 93.7674C230.499 96.9517 230.499 96.8995 234.854 95.4379C248.242 90.9381 261.631 86.4905 275.019 81.9908C277.613 81.1138 280.145 80.9781 282.739 81.9908C284.771 82.7843 285.23 83.9849 284.052 85.8328C282.469 88.3176 280.156 89.7897 277.384 90.6562C274.55 91.5436 271.695 92.4102 268.924 93.4751C268.028 93.8196 267.028 94.6235 266.663 95.4796C263.965 101.671 261.422 107.935 258.818 114.168C258.172 115.713 257.161 116.893 255.442 117.321C254.285 117.613 253.139 117.968 251.618 118.406V99.5304C250.701 99.6975 250.139 99.7288 249.618 99.9063C244.731 101.545 239.855 103.185 234.989 104.865C230.947 106.254 226.842 105.179 224.185 101.796C222.143 99.1963 220.257 96.4714 218.09 93.5377V93.5273Z" fill="#0C2027"/>
<path d="M259.472 85.3536C256.128 86.4811 252.866 87.3268 249.835 88.6945C247.146 89.9055 245.813 88.9555 244.365 86.7943C242.593 84.1425 240.478 81.7204 238.52 79.2251C240.343 77.3041 243.739 76.3854 245.813 77.4712C250.22 79.7889 254.533 82.2633 258.878 84.6854C259.055 84.7794 259.159 84.9986 259.472 85.3536Z" fill="#0C2027"/>
</g>
<path d="M844.079 211.519H824.307V140.727C824.307 139.345 824.031 138.054 823.478 136.856C822.971 135.657 822.256 134.62 821.335 133.745C820.459 132.823 819.422 132.109 818.224 131.602C817.025 131.095 815.735 130.841 814.352 130.841C812.97 130.841 811.679 131.095 810.481 131.602C809.282 132.109 808.222 132.823 807.301 133.745C806.425 134.62 805.734 135.657 805.227 136.856C804.72 138.054 804.466 139.345 804.466 140.727V211.519H784.625V140.727C784.625 139.345 784.371 138.054 783.865 136.856C783.358 135.657 782.643 134.62 781.721 133.745C780.846 132.823 779.809 132.109 778.61 131.602C777.412 131.095 776.122 130.841 774.739 130.841C773.356 130.841 772.066 131.095 770.867 131.602C769.669 132.109 768.609 132.823 767.687 133.745C766.812 134.62 766.12 135.657 765.613 136.856C765.106 138.054 764.853 139.345 764.853 140.727V211.519H745.012V140.727C745.012 136.625 745.772 132.777 747.293 129.182C748.86 125.541 750.98 122.384 753.653 119.711C756.373 116.992 759.53 114.871 763.125 113.351C766.766 111.784 770.637 111 774.739 111C778.426 111 781.975 111.668 785.385 113.005C788.796 114.295 791.861 116.185 794.58 118.674C797.299 116.185 800.341 114.295 803.706 113.005C807.116 111.668 810.665 111 814.352 111C818.454 111 822.302 111.784 825.897 113.351C829.538 114.871 832.695 116.992 835.369 119.711C838.088 122.384 840.208 125.541 841.729 129.182C843.296 132.777 844.079 136.625 844.079 140.727V211.519Z" fill="#0C2027"/>
<path d="M732.634 162.368C732.634 167.069 732.012 171.609 730.767 175.987C729.569 180.32 727.864 184.399 725.651 188.224C723.439 192.003 720.766 195.46 717.632 198.594C714.498 201.728 711.041 204.424 707.262 206.683C703.483 208.895 699.404 210.6 695.025 211.798C690.647 213.043 686.107 213.665 681.406 213.665C676.705 213.665 672.165 213.043 667.787 211.798C663.455 210.6 659.376 208.895 655.55 206.683C651.771 204.424 648.314 201.728 645.18 198.594C642.046 195.46 639.35 192.003 637.092 188.224C634.88 184.399 633.151 180.32 631.907 175.987C630.709 171.609 630.109 167.069 630.109 162.368C630.109 157.667 630.709 153.127 631.907 148.749C633.151 144.371 634.88 140.292 637.092 136.512C639.35 132.733 642.046 129.277 645.18 126.143C648.314 123.008 651.771 120.335 655.55 118.123C659.376 115.911 663.455 114.206 667.787 113.007C672.165 111.763 676.705 111.141 681.406 111.141C686.107 111.141 690.647 111.763 695.025 113.007C699.404 114.206 703.483 115.911 707.262 118.123C711.041 120.335 714.498 123.008 717.632 126.143C720.766 129.277 723.439 132.733 725.651 136.512C727.864 140.292 729.569 144.371 730.767 148.749C732.012 153.127 732.634 157.667 732.634 162.368ZM712.931 162.368C712.931 158.036 712.101 153.957 710.442 150.132C708.783 146.26 706.524 142.919 703.667 140.107C700.856 137.25 697.514 134.992 693.643 133.332C689.817 131.673 685.738 130.844 681.406 130.844C677.028 130.844 672.926 131.673 669.1 133.332C665.275 134.992 661.934 137.25 659.076 140.107C656.219 142.919 653.96 146.26 652.301 150.132C650.642 153.957 649.812 158.036 649.812 162.368C649.812 166.701 650.642 170.779 652.301 174.605C653.96 178.384 656.219 181.702 659.076 184.56C661.934 187.417 665.275 189.676 669.1 191.335C672.926 192.994 677.028 193.824 681.406 193.824C685.738 193.824 689.817 192.994 693.643 191.335C697.514 189.676 700.856 187.417 703.667 184.56C706.524 181.702 708.783 178.384 710.442 174.605C712.101 170.779 712.931 166.701 712.931 162.368Z" fill="#0C2027"/>
<path d="M622.438 162.368C622.438 167.069 621.816 171.609 620.572 175.987C619.373 180.32 617.668 184.399 615.456 188.224C613.244 192.003 610.571 195.46 607.437 198.594C604.302 201.728 600.846 204.424 597.067 206.683C593.287 208.895 589.208 210.6 584.83 211.798C580.452 213.043 575.912 213.665 571.211 213.665C566.51 213.665 561.97 213.043 557.592 211.798C553.259 210.6 549.18 208.895 545.355 206.683C541.576 204.424 538.119 201.728 534.985 198.594C531.851 195.46 529.155 192.003 526.897 188.224C524.684 184.399 522.956 180.32 521.712 175.987C520.513 171.609 519.914 167.069 519.914 162.368C519.914 157.667 520.513 153.127 521.712 148.749C522.956 144.371 524.684 140.292 526.897 136.512C529.155 132.733 531.851 129.277 534.985 126.143C538.119 123.008 541.576 120.335 545.355 118.123C549.18 115.911 553.259 114.206 557.592 113.007C561.97 111.763 566.51 111.141 571.211 111.141C575.912 111.141 580.452 111.763 584.83 113.007C589.208 114.206 593.287 115.911 597.067 118.123C600.846 120.335 604.302 123.008 607.437 126.143C610.571 129.277 613.244 132.733 615.456 136.512C617.668 140.292 619.373 144.371 620.572 148.749C621.816 153.127 622.438 157.667 622.438 162.368ZM602.735 162.368C602.735 158.036 601.906 153.957 600.247 150.132C598.587 146.26 596.329 142.919 593.472 140.107C590.66 137.25 587.319 134.992 583.447 133.332C579.622 131.673 575.543 130.844 571.211 130.844C566.832 130.844 562.73 131.673 558.905 133.332C555.08 134.992 551.738 137.25 548.881 140.107C546.023 142.919 543.765 146.26 542.106 150.132C540.447 153.957 539.617 158.036 539.617 162.368C539.617 166.701 540.447 170.779 542.106 174.605C543.765 178.384 546.023 181.702 548.881 184.56C551.738 187.417 555.08 189.676 558.905 191.335C562.73 192.994 566.832 193.824 571.211 193.824C575.543 193.824 579.622 192.994 583.447 191.335C587.319 189.676 590.66 187.417 593.472 184.56C596.329 181.702 598.587 178.384 600.247 174.605C601.906 170.779 602.735 166.701 602.735 162.368Z" fill="#0C2027"/>
<path d="M447.392 211.516H427.551V112.379H447.392V152.061H487.005V112.379H506.846V211.516H487.005V171.902H447.392V211.516Z" fill="#0C2027"/>
<path d="M412.273 201.492C407.664 205.41 402.525 208.428 396.857 210.549C391.188 212.623 385.288 213.66 379.158 213.66C374.457 213.66 369.918 213.037 365.539 211.793C361.207 210.595 357.151 208.889 353.372 206.677C349.593 204.419 346.136 201.746 343.002 198.658C339.868 195.524 337.195 192.067 334.982 188.288C332.77 184.462 331.042 180.36 329.797 175.982C328.599 171.604 328 167.064 328 162.363C328 157.662 328.599 153.145 329.797 148.813C331.042 144.48 332.77 140.425 334.982 136.645C337.195 132.82 339.868 129.363 343.002 126.275C346.136 123.141 349.593 120.468 353.372 118.256C357.151 116.044 361.207 114.338 365.539 113.14C369.918 111.896 374.457 111.273 379.158 111.273C385.288 111.273 391.188 112.333 396.857 114.454C402.525 116.528 407.664 119.523 412.273 123.441L401.903 140.724C398.907 137.682 395.451 135.309 391.533 133.603C387.616 131.852 383.491 130.976 379.158 130.976C374.826 130.976 370.747 131.806 366.922 133.465C363.143 135.124 359.824 137.383 356.967 140.24C354.109 143.052 351.851 146.37 350.192 150.195C348.533 153.975 347.703 158.03 347.703 162.363C347.703 166.741 348.533 170.843 350.192 174.668C351.851 178.494 354.109 181.835 356.967 184.693C359.824 187.55 363.143 189.809 366.922 191.468C370.747 193.127 374.826 193.957 379.158 193.957C381.647 193.957 384.067 193.657 386.417 193.058C388.768 192.459 391.003 191.629 393.123 190.569V162.363H412.273V201.492Z" fill="#0C2027"/>
<path d="M731.361 334.383H711.52V235.246H731.361V334.383Z" fill="#0C2027"/>
<path d="M698.316 334.383H628.906V235.246H648.747V314.542H698.316V334.383Z" fill="#0C2027"/>
<path d="M589.021 294.77V274.928C589.021 272.209 588.491 269.651 587.431 267.255C586.417 264.812 585.011 262.692 583.214 260.894C581.416 259.097 579.296 257.691 576.853 256.677C574.457 255.617 571.899 255.087 569.18 255.087C566.46 255.087 563.879 255.617 561.437 256.677C559.04 257.691 556.943 259.097 555.146 260.894C553.348 262.692 551.919 264.812 550.859 267.255C549.845 269.651 549.338 272.209 549.338 274.928V294.77H589.021ZM608.862 334.383H589.021V314.542H549.338V334.383H529.566V274.928C529.566 269.444 530.603 264.305 532.677 259.512C534.751 254.672 537.563 250.455 541.112 246.86C544.707 243.266 548.901 240.431 553.694 238.357C558.533 236.283 563.695 235.246 569.18 235.246C574.664 235.246 579.803 236.283 584.596 238.357C589.436 240.431 593.653 243.266 597.248 246.86C600.843 250.455 603.677 254.672 605.751 259.512C607.825 264.305 608.862 269.444 608.862 274.928V334.383Z" fill="#0C2027"/>
<path d="M512.562 324.359C507.953 328.277 502.815 331.296 497.146 333.416C491.477 335.49 485.577 336.527 479.448 336.527C474.746 336.527 470.207 335.904 465.828 334.66C461.496 333.462 457.44 331.757 453.661 329.544C449.882 327.286 446.425 324.613 443.291 321.525C440.157 318.391 437.484 314.934 435.272 311.155C433.059 307.329 431.331 303.228 430.087 298.849C428.888 294.471 428.289 289.931 428.289 285.23C428.289 280.529 428.888 276.012 430.087 271.68C431.331 267.348 433.059 263.292 435.272 259.512C437.484 255.687 440.157 252.23 443.291 249.143C446.425 246.008 449.882 243.335 453.661 241.123C457.44 238.911 461.496 237.206 465.828 236.007C470.207 234.763 474.746 234.141 479.448 234.141C485.577 234.141 491.477 235.201 497.146 237.321C502.815 239.395 507.953 242.391 512.562 246.308L502.192 263.591C499.197 260.549 495.74 258.176 491.822 256.471C487.905 254.719 483.78 253.844 479.448 253.844C475.115 253.844 471.036 254.673 467.211 256.332C463.432 257.992 460.113 260.25 457.256 263.107C454.398 265.919 452.14 269.237 450.481 273.063C448.822 276.842 447.992 280.898 447.992 285.23C447.992 289.608 448.822 293.71 450.481 297.536C452.14 301.361 454.398 304.702 457.256 307.56C460.113 310.417 463.432 312.676 467.211 314.335C471.036 315.994 475.115 316.824 479.448 316.824C481.936 316.824 484.356 316.524 486.707 315.925C489.057 315.326 491.292 314.496 493.412 313.436V285.23H512.562V324.359Z" fill="#0C2027"/>
<defs>
<clipPath id="clip0_179_546">
<rect width="237" height="295" fill="white" transform="translate(53 77)"/>
</clipPath>
</defs>
</svg>
